<svg xmlns="http://www.w3.org/2000/svg" xmlns:xlink="http://www.w3.org/1999/xlink" width="100%" height="100%" viewBox="0 0 1500 600">
<path fill="#695AAF" d="M547.54 70.06l-160 0 0 400 -160 0 0 -80 -160 0 0 80 80 0 0 80 320 0 0 -80 80 0 0 -400zm-480 280l160 0 0 -280 -80 0 0 80 -80 0 0 200zm60 -300l-80 0 0 80 80 0 0 -80z"/>
<path fill="#000000" d="M730.27 466.49c9.1,0 15.9,2.32 20.4,6.97 4.5,4.65 6.75,12.18 6.75,22.58l0 52.35 -13.05 0 0 -51.75c0,-12.7 -5.45,-19.05 -16.35,-19.05 -7.8,0 -13.37,2.25 -16.72,6.75 -3.35,4.5 -5.03,11.05 -5.03,19.65l0 44.4 -13.05 0 0 -51.75c0,-12.7 -5.5,-19.05 -16.5,-19.05 -8.1,0 -13.7,2.5 -16.8,7.5 -3.1,5 -4.65,12.2 -4.65,21.6l0 41.7 -13.2 0 0 -80.4 10.65 0 1.95 10.95 0.75 0c2.5,-4.2 5.88,-7.32 10.13,-9.38 4.25,-2.04 8.77,-3.07 13.57,-3.07 12.6,0 20.8,4.5 24.6,13.5l0.75 0c2.7,-4.6 6.38,-8 11.03,-10.2 4.65,-2.2 9.57,-3.3 14.77,-3.3zm92.25 0.15c9.8,0 17.05,2.15 21.75,6.45 4.7,4.3 7.05,11.15 7.05,20.55l0 54.75 -9.6 0 -2.55 -11.4 -0.6 0c-3.5,4.4 -7.17,7.65 -11.02,9.75 -3.85,2.1 -9.18,3.15 -15.98,3.15 -7.3,0 -13.35,-1.92 -18.15,-5.78 -4.8,-3.84 -7.2,-9.87 -7.2,-18.07 0,-8 3.15,-14.18 9.45,-18.53 6.3,-4.35 16,-6.72 29.1,-7.12l13.65 -0.45 0 -4.8c0,-6.7 -1.45,-11.35 -4.35,-13.95 -2.9,-2.6 -7,-3.9 -12.3,-3.9 -4.2,0 -8.2,0.63 -12,1.87 -3.8,1.26 -7.35,2.68 -10.65,4.28l-4.05 -9.9c3.5,-1.9 7.65,-3.53 12.45,-4.88 4.8,-1.35 9.8,-2.02 15,-2.02zm3.9 42.9c-10,0.4 -16.92,2 -20.77,4.8 -3.85,2.8 -5.78,6.75 -5.78,11.85 0,4.5 1.38,7.8 4.13,9.9 2.75,2.1 6.27,3.15 10.57,3.15 6.8,0 12.45,-1.88 16.95,-5.63 4.5,-3.75 6.75,-9.52 6.75,-17.32l0 -7.2 -11.85 0.45zm88.05 40.35c-10,0 -18,-3.47 -24,-10.43 -6,-6.94 -9,-17.32 -9,-31.12 0,-13.8 3.03,-24.23 9.08,-31.28 6.05,-7.05 14.07,-10.57 24.07,-10.57 6.2,0 11.28,1.15 15.23,3.45 3.95,2.3 7.17,5.1 9.67,8.4l0.9 0c-0.1,-1.3 -0.27,-3.23 -0.52,-5.78 -0.25,-2.55 -0.38,-4.57 -0.38,-6.07l0 -32.1 13.2 0 0 114 -10.65 0 -1.95 -10.8 -0.6 0c-2.4,3.4 -5.6,6.3 -9.6,8.7 -4,2.4 -9.15,3.6 -15.45,3.6zm2.1 -10.95c8.5,0 14.48,-2.33 17.93,-6.98 3.45,-4.65 5.17,-11.67 5.17,-21.07l0 -2.4c0,-10 -1.65,-17.67 -4.95,-23.03 -3.3,-5.34 -9.4,-8.02 -18.3,-8.02 -7.1,0 -12.42,2.83 -15.97,8.47 -3.55,5.66 -5.33,13.23 -5.33,22.73 0,9.6 1.78,17.05 5.33,22.35 3.55,5.3 8.92,7.95 16.12,7.95zm102.45 -72.45c6.9,0 12.83,1.5 17.78,4.5 4.95,3 8.75,7.23 11.4,12.67 2.65,5.46 3.97,11.83 3.97,19.13l0 7.95 -55.05 0c0.2,9.1 2.53,16.03 6.98,20.77 4.45,4.76 10.67,7.13 18.67,7.13 5.1,0 9.63,-0.47 13.58,-1.43 3.95,-0.94 8.02,-2.32 12.22,-4.12l0 11.55c-4.1,1.8 -8.15,3.13 -12.15,3.98 -4,0.85 -8.75,1.27 -14.25,1.27 -7.6,0 -14.32,-1.55 -20.17,-4.65 -5.85,-3.1 -10.4,-7.73 -13.65,-13.88 -3.25,-6.15 -4.88,-13.67 -4.88,-22.57 0,-8.8 1.48,-16.35 4.43,-22.65 2.95,-6.3 7.1,-11.15 12.45,-14.55 5.35,-3.4 11.57,-5.1 18.67,-5.1zm-0.15 10.8c-6.3,0 -11.27,2.02 -14.92,6.07 -3.65,4.05 -5.83,9.68 -6.53,16.88l40.95 0c-0.1,-6.8 -1.7,-12.32 -4.8,-16.58 -3.1,-4.24 -8,-6.37 -14.7,-6.37zm164.1 25.65c-1.3,-4.1 -2.42,-8.12 -3.37,-12.08 -0.95,-3.94 -1.68,-7.02 -2.18,-9.22l-0.6 0c-0.4,2.2 -1.05,5.28 -1.95,9.22 -0.9,3.96 -2.05,8.03 -3.45,12.23l-14.4 45.15 -15 0 -22.05 -80.4 13.65 0 11.1 42.9c1.1,4.3 2.15,8.65 3.15,13.05 1,4.4 1.7,8.05 2.1,10.95l0.6 0c0.4,-1.7 0.88,-3.8 1.43,-6.3 0.55,-2.5 1.17,-5.12 1.87,-7.88 0.7,-2.74 1.4,-5.22 2.1,-7.42l14.25 -45.3 14.4 0 13.8 45.3c1.1,3.4 2.18,7.1 3.23,11.1 1.05,4 1.77,7.45 2.17,10.35l0.6 0c0.3,-2.5 0.98,-5.95 2.03,-10.35 1.05,-4.4 2.17,-8.9 3.37,-13.5l11.25 -42.9 13.5 0 -22.35 80.4 -15.45 0 -13.8 -45.3zm82.5 -65.1c2,0 3.78,0.67 5.33,2.02 1.55,1.35 2.32,3.48 2.32,6.38 0,2.8 -0.77,4.9 -2.32,6.3 -1.55,1.4 -3.33,2.1 -5.33,2.1 -2.2,0 -4.05,-0.7 -5.55,-2.1 -1.5,-1.4 -2.25,-3.5 -2.25,-6.3 0,-2.9 0.75,-5.03 2.25,-6.38 1.5,-1.35 3.35,-2.02 5.55,-2.02zm6.45 30.15l0 80.4 -13.2 0 0 -80.4 13.2 0zm62.1 71.1c2,0 4.05,-0.17 6.15,-0.53 2.1,-0.34 3.8,-0.72 5.1,-1.12l0 10.05c-1.4,0.7 -3.4,1.28 -6,1.73 -2.6,0.45 -5.1,0.67 -7.5,0.67 -4.2,0 -8.07,-0.72 -11.62,-2.18 -3.55,-1.44 -6.43,-3.97 -8.63,-7.57 -2.2,-3.6 -3.3,-8.65 -3.3,-15.15l0 -46.8 -11.4 0 0 -6.3 11.55 -5.25 5.25 -17.1 7.8 0 0 18.45 23.25 0 0 10.2 -23.25 0 0 46.5c0,4.9 1.18,8.53 3.53,10.87 2.35,2.36 5.37,3.53 9.07,3.53zm50.25 -71.25c0,4 -0.25,7.75 -0.75,11.25l0.9 0c2.6,-4.1 6.13,-7.2 10.58,-9.3 4.45,-2.1 9.27,-3.15 14.47,-3.15 9.8,0 17.15,2.32 22.05,6.97 4.9,4.65 7.35,12.13 7.35,22.43l0 52.35 -13.05 0 0 -51.45c0,-12.9 -6,-19.35 -18,-19.35 -9,0 -15.17,2.53 -18.52,7.57 -3.35,5.06 -5.03,12.28 -5.03,21.68l0 41.55 -13.2 0 0 -114 13.2 0 0 33.45z"/>
<path fill="#000000" d="M721.07 256.86l84.9 0 0 111c-11.2,3.8 -22.85,6.8 -34.95,9 -12.1,2.2 -25.85,3.3 -41.25,3.3 -32,0 -56.6,-9.4 -73.8,-28.2 -17.2,-18.8 -25.8,-46.2 -25.8,-82.2 0,-22.4 4.35,-41.8 13.05,-58.2 8.7,-16.4 21.35,-29.1 37.95,-38.1 16.6,-9 36.9,-13.5 60.9,-13.5 11.4,0 22.6,1.2 33.6,3.6 11,2.4 21,5.6 30,9.6l-15 36.3c-6.6,-3.4 -14.1,-6.2 -22.5,-8.4 -8.4,-2.2 -17.2,-3.3 -26.4,-3.3 -13.2,0 -24.65,3 -34.35,9 -9.7,6 -17.2,14.45 -22.5,25.35 -5.3,10.9 -7.95,23.75 -7.95,38.55 0,14 1.9,26.4 5.7,37.2 3.8,10.8 9.8,19.25 18,25.35 8.2,6.1 18.9,9.15 32.1,9.15 6.4,0 11.85,-0.3 16.35,-0.9 4.5,-0.6 8.65,-1.3 12.45,-2.1l0 -44.7 -40.5 0 0 -37.8zm267 120.3l-16.5 -50.4 -75.6 0 -16.5 50.4 -49.5 0 75.3 -215.1 56.4 0 75.9 215.1 -49.5 0zm-42 -135.3c-0.8,-3 -2.05,-7.5 -3.75,-13.5 -1.7,-6 -3.35,-12.15 -4.95,-18.45 -1.6,-6.3 -2.9,-11.45 -3.9,-15.45 -0.8,4.6 -1.95,9.85 -3.45,15.75 -1.5,5.9 -2.95,11.7 -4.35,17.4 -1.4,5.7 -2.6,10.45 -3.6,14.25l-15.3 46.5 54.3 0 -15 -46.5zm209.1 135.3l-51.6 -168 -1.2 0c0.2,4 0.5,10 0.9,18 0.4,8 0.8,16.55 1.2,25.65 0.4,9.1 0.6,17.35 0.6,24.75l0 99.6 -40.5 0 0 -214.2 61.8 0 50.7 163.8 0.9 0 53.7 -163.8 61.8 0 0 214.2 -42.3 0 0 -101.4c0,-6.8 0.15,-14.6 0.45,-23.4 0.3,-8.8 0.6,-17.15 0.9,-25.05 0.3,-7.9 0.55,-13.85 0.75,-17.85l-1.2 0 -55.2 167.7 -41.7 0zm295.6 0l-123.3 0 0 -214.2 123.3 0 0 37.2 -78 0 0 47.1 72.6 0 0 37.2 -72.6 0 0 55.2 78 0 0 37.5z"/>
</svg>