<svg xmlns="http://www.w3.org/2000/svg" xmlns:xlink="http://www.w3.org/1999/xlink" width="100%" height="100%" viewBox="0 0 1024 1024">
<path fill="#0084C4" d="M186 144l236 0c23.1,0 42,18.9 42,42l0 236c0,23.1 -18.9,42 -42,42l-236 0c-23.1,0 -42,-18.9 -42,-42l0 -236c0,-23.1 18.9,-42 42,-42zm236 41.99l0 0.01 -0.01 0c0,0 0,0.01 0,0.01 -0.01,0.02 -0.01,0.03 -0.02,0.02 -0.01,-0.01 0,-0.01 0.02,-0.02 0,0 0.01,0 0.01,0l0 -0.01 0 0c0,-0.01 0,-0.01 0,-0.01zm-0.01 0.01l-235.98 0c-0.01,-0.01 -0.01,-0.01 -0.01,-0.01l0 0.01 0.01 0c0,0 0,0.01 0,0.01 0.02,0.01 0.03,0.01 0.02,0.02 -0.01,0.01 -0.01,0 -0.02,-0.02 0,0 -0.01,0 -0.01,0l0 235.98c-0.01,0.01 -0.01,0.01 -0.01,0.01l0.01 0 0 0c0,0.01 0,0.01 0,0.01l0 -0.01 0.01 0c0,0 0,-0.01 0,-0.01 0.01,-0.02 0.01,-0.03 0.02,-0.02 0.01,0.01 0,0.01 -0.02,0.02 0,0 -0.01,0 -0.01,0l0 0.01 -0.01 0c0,0 0,0 0.01,0l0 0 0 0.01c0,0 0,0 0.01,-0.01l235.98 0c0.01,0.01 0.01,0.01 0.01,0.01l0 -0.01 0 0c0.01,0 0.01,0 0.01,0l-0.01 0 0 -0.01c0,0 -0.01,0 -0.01,0 -0.01,-0.01 -0.03,-0.01 -0.02,-0.02 0.01,-0.01 0.01,0.01 0.02,0.02 0,0 0,0.01 0,0.01l0.01 0 0 0.01c0,0 0,0 0,-0.01l0 0 0.01 0c0,0 0,0 -0.01,-0.01l0 -235.98c0.01,-0.01 0.01,-0.01 0.01,-0.01l-0.01 0 0.01 0c0,0 0,0 -0.01,0l0 0 0 -0.01c0,0 0,0 -0.01,0.01zm-236 0l0.01 0 0 0.01c-0.01,-0.01 -0.01,-0.01 -0.01,-0.01zm0.01 -0.01c0,0 0,0 0,0.01 -0.01,0 -0.01,0 -0.01,0l0.01 0 0 0 0 0 0 -0.01z"/>
<path fill="#FF4848" d="M523.43 274.3l166.87 -166.87c16.34,-16.34 43.06,-16.34 59.4,0l166.87 166.87c16.34,16.34 16.34,43.07 0,59.4l-166.87 166.88c-16.34,16.33 -43.06,16.33 -59.4,0l-166.87 -166.88c-16.34,-16.33 -16.34,-43.06 0,-59.4zm196.57 -137.18l-166.88 166.88c0,-0.01 0,-0.01 0,-0.01l0 0.01 0 0c0.01,0 0.01,0 0.01,0 0.02,-0.01 0.05,-0.02 0.05,0 0,0.02 -0.03,0.01 -0.05,0 0,0 0,0 -0.01,0.01l166.88 166.87c-0.01,0.01 -0.01,0.01 0,0l0 0 0 0c0,0 0,0 0,0 0,0 0,0 0,-0.01l0 0 0 0c-0.01,-0.02 -0.02,-0.04 0,-0.04 0.02,0 0.01,0.02 0,0.04l0 0 0 0c0,0 0,0.01 0,0.01 0,0 0,0 0,0l0 0c0.01,0.01 0.01,0.01 0,0l166.88 -166.87c0,0 0,0 0,0l0 -0.01 0 0 0 0c0.01,-0.01 0.01,-0.01 0.01,-0.01l-0.01 0.01 0 0 0 0c-0.01,0 -0.01,0 -0.01,0 -0.02,0.01 -0.05,0.02 -0.05,0 0,-0.02 0.03,-0.01 0.05,0 0,0 0,0 0.01,0.01l0 -0.01 0 0.01c0.01,0 0.01,0 0.01,0l-0.01 -0.01 0.01 0.01c0,0 0,0 -0.01,-0.01l0 0 0.01 -0.01c0,0 0,0 -0.01,0l0 0.01 0 -0.01c0,0 0,0 0,0.01l-166.88 -166.88c0,0 0,0 0,0l0 0 0 0c-0.01,-0.01 -0.01,-0.01 0,0zm0 0.01l0 0c0.01,0.02 0.02,0.05 0,0.05 -0.02,0 -0.01,-0.03 0,-0.05l0 0c0,0 0,-0.01 0,-0.01 0.01,-0.01 0.01,-0.01 0,0l0 0c0,0 0,0 0,0 0,0 0,0.01 0,0.01l0 0zm-166.88 166.88l0 -0.01 0 0.01c0,0 0,0 0,0zm-0.01 0l0.01 -0.01 0 0 0 0.01c-0.01,0 -0.01,0 -0.01,0zm0.01 -0.02c-0.01,0 -0.01,0 -0.01,0l0.01 0.01 0 0c-0.01,0.01 -0.01,0.01 -0.01,0.01l0.01 -0.01 0 0c-0.01,-0.01 -0.01,-0.01 -0.01,-0.01l0.01 0.01 0 0 0 -0.01z"/>
<path fill="#0084C4" d="M186 560l236 0c23.1,0 42,18.9 42,42l0 236c0,23.1 -18.9,42 -42,42l-236 0c-23.1,0 -42,-18.9 -42,-42l0 -236c0,-23.1 18.9,-42 42,-42zm236 41.99l0 0.01 -0.01 0c0,0 0,0.01 0,0.01 -0.01,0.01 -0.01,0.03 -0.02,0.02 -0.01,-0.01 0.01,-0.01 0.02,-0.02 0,0 0.01,0 0.01,0l0 -0.01 0 0c0,-0.01 0,-0.01 0,-0.01zm-0.01 0.01l-235.98 0c-0.01,-0.01 -0.01,-0.01 -0.01,-0.01l0 0.01 0.01 0c0,0 0,0.01 0,0.01 0.02,0.01 0.03,0.01 0.02,0.02 -0.01,0.01 -0.01,0 -0.02,-0.02 0,0 -0.01,0 -0.01,0l0 235.98c-0.01,0.01 -0.01,0.01 -0.01,0.01l0.01 0 0 0c0,0.01 0,0.01 0,0.01l0 -0.01 0.01 0c0,0 0,-0.01 0,-0.01 0.01,-0.02 0.01,-0.03 0.02,-0.02 0.01,0.01 0,0.01 -0.02,0.02 0,0 -0.01,0 -0.01,0l0 0.01 -0.01 0c0,0 0,0 0.01,0l0 0 0 0.01c0,0 0,0 0.01,-0.01l235.98 0c0.01,0.01 0.01,0.01 0.01,0.01l0 -0.01 0 0c0.01,0 0.01,0 0.01,0l-0.01 0 0 -0.01c0,0 -0.01,0 -0.01,0l0 0 0 0c-0.01,-0.01 -0.03,-0.01 -0.02,-0.02 0.01,-0.01 0.01,0.01 0.02,0.02l0 0 0 0c0,0 0,0.01 0,0.01l0.01 0 0 0.01c0,0 0,0 0,-0.01l0 0 0.01 0c0,0 0,0 -0.01,-0.01l0 -235.98c0.01,-0.01 0.01,-0.01 0.01,-0.01l-0.01 0 0.01 0c0,0 0,0 -0.01,0l0 0 0 -0.01c0,0 0,0 -0.01,0.01zm-236 0l0.01 0 0 0.01c-0.01,-0.01 -0.01,-0.01 -0.01,-0.01zm0.01 -0.01c0,0 0,0 0,0.01 -0.01,0 -0.01,0 -0.01,0l0.01 0 0 0 0 0 0 -0.01z"/>
<path fill="#0084C4" d="M602 560l236 0c23.1,0 42,18.9 42,42l0 236c0,23.1 -18.9,42 -42,42l-236 0c-23.1,0 -42,-18.9 -42,-42l0 -236c0,-23.1 18.9,-42 42,-42zm236 41.99l0 0.01 -0.01 0c0,0 0,0.01 0,0.01 -0.01,0.01 -0.01,0.03 -0.02,0.02 -0.01,-0.01 0.01,-0.01 0.02,-0.02 0,0 0.01,0 0.01,0l0 -0.01 0 0c0,-0.01 0,-0.01 0,-0.01zm-0.01 0.01l-235.98 0c-0.01,-0.01 -0.01,-0.01 -0.01,-0.01l0 0.01 0.01 0c0,0 0,0.01 0,0.01 0.01,0.01 0.03,0.01 0.02,0.02 -0.01,0.01 -0.01,-0.01 -0.02,-0.02 0,0 -0.01,0 -0.01,0l0 235.98c-0.01,0.01 -0.01,0.01 -0.01,0.01l0.01 0 0 0c0,0.01 0,0.01 0,0.01l0 -0.01 0.01 0c0,0 0,-0.01 0,-0.01 0.01,-0.01 0.01,-0.03 0.02,-0.02 0.01,0.01 -0.01,0.01 -0.02,0.02 0,0 -0.01,0 -0.01,0l0 0.01 -0.01 0c0,0 0,0 0.01,0l0 0 0 0.01c0,0 0,0 0.01,-0.01l235.98 0c0.01,0.01 0.01,0.01 0.01,0.01l0 -0.01 0 0c0.01,0 0.01,0 0.01,0l-0.01 0 0 -0.01c0,0 -0.01,0 -0.01,0 -0.01,-0.01 -0.03,-0.01 -0.02,-0.02 0.01,-0.01 0.01,0.01 0.02,0.02 0,0 0,0.01 0,0.01l0.01 0 0 0.01c0,0 0,0 0,-0.01l0 0 0.01 0c0,0 0,0 -0.01,-0.01l0 -235.98c0.01,-0.01 0.01,-0.01 0.01,-0.01l-0.01 0 0.01 0c0,0 0,0 -0.01,0l0 0 0 -0.01c0,0 0,0 -0.01,0.01zm-236 0l0.01 0 0 0.01c-0.01,-0.01 -0.01,-0.01 -0.01,-0.01zm0.01 -0.01c0,0 0,0 0,0.01 -0.01,0 -0.01,0 -0.01,0l0.01 0 0 0 0 0 0 -0.01z"/>
</svg>